<?xml version="1.0" encoding="utf-8"?>
<!-- Generator: Adobe Illustrator 17.0.0, SVG Export Plug-In . SVG Version: 6.00 Build 0)  -->
<!DOCTYPE svg PUBLIC "-//W3C//DTD SVG 1.1//EN" "http://www.w3.org/Graphics/SVG/1.1/DTD/svg11.dtd">
<svg version="1.1" id="Layer_1" xmlns="http://www.w3.org/2000/svg"  x="0px" y="0px"
	 width="2px" height="2px" viewBox="0 0 2 2" enable-background="new 0 0 2 2" xml:space="preserve">
<path fill="#5E5B5D" d="M1.35,0.8h-0.7C0.567,0.8,0.5,0.867,0.5,0.95v0.3h0.2v0.2h0.6v-0.2h0.2v-0.3C1.5,0.867,1.433,0.8,1.35,0.8z
	 M1.2,1.35H0.8V1.1h0.4V1.35z M1.35,1C1.322,1,1.3,0.978,1.3,0.95c0-0.027,0.023-0.05,0.05-0.05c0.027,0,0.05,0.023,0.05,0.05
	C1.4,0.978,1.377,1,1.35,1z M1.3,0.55H0.7v0.2h0.6V0.55z"/>
</svg>
