<?xml version="1.0" encoding="utf-8"?>
<!-- Generator: Adobe Illustrator 17.0.0, SVG Export Plug-In . SVG Version: 6.00 Build 0)  -->
<!DOCTYPE svg PUBLIC "-//W3C//DTD SVG 1.1//EN" "http://www.w3.org/Graphics/SVG/1.1/DTD/svg11.dtd">
<svg version="1.1" id="Layer_1" xmlns="http://www.w3.org/2000/svg"  x="0px" y="0px"
	 width="2px" height="2px" viewBox="0 0 2 2" enable-background="new 0 0 2 2" xml:space="preserve">
<path fill="#5E5B5D" d="M1.35,0.6H1.141C1.12,0.542,1.065,0.5,1,0.5S0.88,0.542,0.859,0.6H0.65c-0.055,0-0.1,0.045-0.1,0.1v0.7
	c0,0.055,0.045,0.1,0.1,0.1h0.7c0.055,0,0.1-0.045,0.1-0.1V0.7C1.45,0.645,1.405,0.6,1.35,0.6z M1,0.6c0.028,0,0.05,0.022,0.05,0.05
	C1.05,0.678,1.028,0.7,1,0.7S0.95,0.678,0.95,0.65C0.95,0.623,0.972,0.6,1,0.6z M1.1,1.3H0.75V1.2H1.1V1.3z M1.25,1.1h-0.5V1h0.5
	V1.1z M1.25,0.9h-0.5V0.8h0.5V0.9z"/>
</svg>
