<?xml version="1.0" encoding="utf-8"?>
<!-- Generator: Adobe Illustrator 17.0.0, SVG Export Plug-In . SVG Version: 6.00 Build 0)  -->
<!DOCTYPE svg PUBLIC "-//W3C//DTD SVG 1.1//EN" "http://www.w3.org/Graphics/SVG/1.1/DTD/svg11.dtd">
<svg version="1.1" id="Layer_1" xmlns="http://www.w3.org/2000/svg"  x="0px" y="0px"
	 width="2px" height="2px" viewBox="0 0 2 2" enable-background="new 0 0 2 2" xml:space="preserve">
<path fill="#5E5B5D" d="M1.056,0.5H0.944v0.556h0.111V0.5z M1.324,0.621L1.245,0.699C1.333,0.77,1.389,0.878,1.389,1
	c0,0.215-0.174,0.389-0.389,0.389S0.611,1.215,0.611,1c0-0.122,0.056-0.23,0.143-0.301L0.676,0.621C0.568,0.712,0.5,0.848,0.5,1
	c0,0.276,0.224,0.5,0.5,0.5S1.5,1.276,1.5,1C1.5,0.848,1.432,0.712,1.324,0.621z"/>
</svg>
