<?xml version="1.0" encoding="utf-8"?>
<!-- Generator: Adobe Illustrator 17.0.0, SVG Export Plug-In . SVG Version: 6.00 Build 0)  -->
<!DOCTYPE svg PUBLIC "-//W3C//DTD SVG 1.1//EN" "http://www.w3.org/Graphics/SVG/1.1/DTD/svg11.dtd">
<svg version="1.1" id="Layer_1" xmlns="http://www.w3.org/2000/svg" xmlns:xlink="http://www.w3.org/1999/xlink" x="0px" y="0px"
	 width="2px" height="2px" viewBox="0 0 2 2" enable-background="new 0 0 2 2" xml:space="preserve">
<path fill="#5E5B5D" d="M1.372,1.049C1.374,1.033,1.375,1.017,1.375,1c0-0.017-0.002-0.033-0.003-0.049l0.106-0.083
	c0.01-0.007,0.012-0.021,0.006-0.032l-0.1-0.173c-0.006-0.011-0.02-0.015-0.031-0.011l-0.125,0.05
	c-0.026-0.02-0.054-0.036-0.084-0.049L1.125,0.521C1.123,0.509,1.113,0.5,1.1,0.5H0.9c-0.012,0-0.023,0.009-0.024,0.021L0.857,0.654
	c-0.03,0.012-0.059,0.03-0.085,0.049l-0.125-0.05c-0.012-0.005-0.025,0-0.03,0.011l-0.1,0.173C0.511,0.848,0.514,0.861,0.523,0.869
	l0.106,0.082C0.627,0.967,0.625,0.984,0.625,1c0,0.017,0.002,0.033,0.004,0.049L0.523,1.132C0.514,1.139,0.511,1.153,0.517,1.164
	l0.1,0.173c0.006,0.011,0.02,0.015,0.03,0.011l0.125-0.05c0.026,0.02,0.054,0.036,0.085,0.049l0.019,0.132
	C0.877,1.491,0.888,1.5,0.9,1.5h0.2c0.013,0,0.023-0.009,0.025-0.021l0.019-0.132c0.03-0.013,0.058-0.03,0.084-0.049l0.125,0.05
	c0.012,0.005,0.025,0,0.031-0.011l0.1-0.173c0.006-0.011,0.003-0.025-0.006-0.032L1.372,1.049z M0.99,1.175
	C0.894,1.169,0.82,1.086,0.825,0.99S0.914,0.82,1.01,0.825S1.18,0.914,1.175,1.01S1.086,1.18,0.99,1.175z"/>
</svg>
