<?xml version="1.0" encoding="utf-8"?>
<!-- Generator: Adobe Illustrator 17.0.0, SVG Export Plug-In . SVG Version: 6.00 Build 0)  -->
<!DOCTYPE svg PUBLIC "-//W3C//DTD SVG 1.1//EN" "http://www.w3.org/Graphics/SVG/1.1/DTD/svg11.dtd">
<svg version="1.1" id="Layer_1" xmlns="http://www.w3.org/2000/svg" xmlns:xlink="http://www.w3.org/1999/xlink" x="0px" y="0px"
	 width="2px" height="2px" viewBox="0 0 2 2" enable-background="new 0 0 2 2" xml:space="preserve">
<path fill="#5E5B5D" d="M1.409,0.682v0.636H1.5V0.682H1.409z M1.227,1.318h0.091V0.682H1.227V1.318z M1.091,0.682H0.545
	C0.52,0.682,0.5,0.702,0.5,0.727v0.545c0,0.025,0.02,0.045,0.045,0.045h0.545c0.025,0,0.045-0.02,0.045-0.045V0.727
	C1.136,0.702,1.116,0.682,1.091,0.682z M0.818,0.807c0.056,0,0.102,0.046,0.102,0.102c0,0.056-0.046,0.102-0.102,0.102
	S0.716,0.965,0.716,0.909C0.716,0.853,0.762,0.807,0.818,0.807z M1.023,1.227H0.614V1.193c0-0.068,0.136-0.102,0.205-0.102
	s0.205,0.034,0.205,0.102V1.227z"/>
</svg>
