<?xml version="1.0" encoding="utf-8"?>
<!-- Generator: Adobe Illustrator 17.0.0, SVG Export Plug-In . SVG Version: 6.00 Build 0)  -->
<!DOCTYPE svg PUBLIC "-//W3C//DTD SVG 1.1//EN" "http://www.w3.org/Graphics/SVG/1.1/DTD/svg11.dtd">
<svg version="1.1" id="Layer_1" xmlns="http://www.w3.org/2000/svg"  x="0px" y="0px"
	 width="256px" height="256px" viewBox="0 0 256 256" enable-background="new 0 0 256 256" xml:space="preserve">
<path display="none" fill="#5E5B5D" d="M3,141.889h111.111V3H3V141.889z M3,253h111.111v-83.333H3V253z M141.889,253H253V114.111
	H141.889V253z M141.889,3v83.333H253V3H141.889z"/>
<path display="none" fill="#5E5B5D" d="M230.273,48.455v159.091H253V48.455H230.273z M184.818,207.545h22.727V48.455h-22.727
	V207.545z M150.727,48.455H14.364C8.114,48.455,3,53.568,3,59.818v136.364c0,6.25,5.114,11.364,11.364,11.364h136.364
	c6.25,0,11.364-5.114,11.364-11.364V59.818C162.091,53.568,156.977,48.455,150.727,48.455z M82.545,79.705
	c14.091,0,25.568,11.477,25.568,25.568s-11.477,25.568-25.568,25.568s-25.568-11.477-25.568-25.568S68.455,79.705,82.545,79.705z
	 M133.682,184.818H31.409v-8.523c0-17.045,34.091-25.568,51.136-25.568s51.136,8.523,51.136,25.568V184.818z"/>
<path display="none" fill="#5E5B5D" d="M215.5,28h-52.25C158,13.5,144.25,3,128,3S98,13.5,92.75,28H40.5c-13.75,0-25,11.25-25,25
	v175c0,13.75,11.25,25,25,25h175c13.75,0,25-11.25,25-25V53C240.5,39.25,229.25,28,215.5,28z M128,28c6.875,0,12.5,5.625,12.5,12.5
	S134.875,53,128,53s-12.5-5.625-12.5-12.5S121.125,28,128,28z M153,203H65.5v-25H153V203z M190.5,153h-125v-25h125V153z M190.5,103
	h-125V78h125V103z"/>
<path display="none" fill="#5E5B5D" d="M215.5,78h-175C19.75,78,3,94.75,3,115.5v75h50v50h150v-50h50v-75
	C253,94.75,236.25,78,215.5,78z M178,215.5H78V153h100V215.5z M215.5,128c-6.875,0-12.5-5.625-12.5-12.5s5.625-12.5,12.5-12.5
	s12.5,5.625,12.5,12.5S222.375,128,215.5,128z M203,15.5H53v50h150V15.5z"/>
<path display="none" fill="#5E5B5D" d="M103,96.75C103,79.5,89,65.5,71.75,65.5s-31.125,14-31.125,31.25S54.5,128,71.75,128
	S103,114,103,96.75z M203,78c0-20.75-16.75-37.5-37.5-37.5S128.125,57.25,128.125,78s16.625,37.5,37.375,37.5S203,98.75,203,78z
	 M3,187.375V215.5h137.5v-28.125C140.5,164.5,94.625,153,71.75,153S3,164.5,3,187.375z M135.875,144
	c25.5,14.125,29.625,32.75,29.625,43.375V215.5H253v-31.25c0-29.125-58.375-43.75-87.5-43.75
	C157.25,140.5,146.75,141.75,135.875,144z"/>
<path display="none" fill="#5E5B5D" d="M153,3H53C39.25,3,28.125,14.25,28.125,28L28,228c0,13.75,11.125,25,24.875,25H203
	c13.75,0,25-11.25,25-25V78L153,3z M178,203H78v-25h100V203z M178,153H78v-25h100V153z M140.5,90.5V21.75l68.75,68.75H140.5z"/>
<path fill="#5E5B5D" d="M220.903,140.25c0.5-4,0.875-8,0.875-12.25c0-4.25-0.375-8.25-0.875-12.25l26.375-20.625
	c2.375-1.875,3-5.25,1.5-8l-25-43.25c-1.5-2.75-4.875-3.75-7.625-2.75l-31.125,12.5c-6.5-5-13.5-9.125-21.125-12.25l-4.75-33.125
	c-0.375-3-3-5.25-6.125-5.25h-50c-3.125,0-5.75,2.25-6.125,5.25l-4.75,33.125c-7.625,3.125-14.625,7.375-21.125,12.25l-31.125-12.5
	c-2.875-1.125-6.125,0-7.625,2.75l-25,43.25c-1.625,2.75-0.875,6.125,1.5,8l26.375,20.625c-0.5,4-0.875,8.125-0.875,12.25
	s0.375,8.25,0.875,12.25L8.778,160.875c-2.375,1.875-3,5.25-1.5,8l25,43.25c1.5,2.75,4.875,3.75,7.625,2.75l31.125-12.5
	c6.5,5,13.5,9.125,21.125,12.25l4.75,33.125c0.375,3,3,5.25,6.125,5.25h50c3.125,0,5.75-2.25,6.125-5.25l4.75-33.125
	c7.625-3.125,14.625-7.375,21.125-12.25l31.125,12.5c2.875,1.125,6.125,0,7.625-2.75l25-43.25c1.5-2.75,0.875-6.125-1.5-8
	L220.903,140.25z M125.511,171.678c-24.085-1.388-42.548-22.11-41.161-46.195s22.11-42.548,46.195-41.161
	s42.548,22.11,41.161,46.195S149.596,173.066,125.511,171.678z"/>
<path display="none" fill="#5E5B5D" d="M141.889,3h-27.778v138.889h27.778V3z M208.972,33.139L189.25,52.861
	C211.194,70.5,225.222,97.583,225.222,128c0,53.75-43.472,97.222-97.222,97.222S30.778,181.75,30.778,128
	c0-30.417,14.028-57.5,35.833-75.278L47.028,33.139C20.083,56.056,3,89.944,3,128c0,69.028,55.972,125,125,125s125-55.972,125-125
	C253,89.944,235.917,56.056,208.972,33.139z"/>
</svg>
