<?xml version="1.0" encoding="utf-8"?>
<!-- Generator: Adobe Illustrator 17.0.0, SVG Export Plug-In . SVG Version: 6.00 Build 0)  -->
<!DOCTYPE svg PUBLIC "-//W3C//DTD SVG 1.1//EN" "http://www.w3.org/Graphics/SVG/1.1/DTD/svg11.dtd">
<svg version="1.1" id="Layer_1" xmlns="http://www.w3.org/2000/svg" xmlns:xlink="http://www.w3.org/1999/xlink" x="0px" y="0px"
	 width="2px" height="2px" viewBox="0 0 2 2" enable-background="new 0 0 2 2" xml:space="preserve">
<path fill="#5E5B5D" d="M0.9,0.875c0-0.069-0.056-0.125-0.125-0.125S0.65,0.806,0.65,0.875S0.706,1,0.775,1S0.9,0.944,0.9,0.875z
	 M1.3,0.8c0-0.083-0.067-0.15-0.15-0.15C1.067,0.65,1,0.717,1,0.8s0.067,0.15,0.15,0.15C1.233,0.95,1.3,0.883,1.3,0.8z M0.5,1.237
	V1.35h0.55V1.237C1.05,1.146,0.867,1.1,0.775,1.1S0.5,1.146,0.5,1.237z M1.031,1.064C1.133,1.12,1.15,1.195,1.15,1.237V1.35H1.5
	V1.225c0-0.117-0.234-0.175-0.35-0.175C1.117,1.05,1.075,1.055,1.031,1.064z"/>
</svg>
